<svg id="Layer_1" data-name="Layer 1" xmlns="http://www.w3.org/2000/svg" xmlns:xlink="http://www.w3.org/1999/xlink" viewBox="0 0 295.77 123.1"><defs><style>.cls-1{fill:#fff;}.cls-2{fill:#dd1717;}.cls-3{fill:#540e0e;}.cls-4{fill:#a50808;}.cls-5{fill:#20c0e5;}.cls-6{fill:#3cb9ce;}.cls-7{fill:#62ce29;}.cls-8{mask:url(#mask);}.cls-9{fill:#5aaa26;}.cls-10{fill:#efdb22;}.cls-11{fill:#dbaa21;}.cls-12{fill:#0d04b2;}.cls-13{fill:#08089b;}.cls-14{fill:#0a0a8e;}.cls-15{opacity:0.86;}.cls-16{filter:url(#luminosity-noclip);}</style><filter id="luminosity-noclip" x="462.66" y="270.39" width="7.42" height="20.29" filterUnits="userSpaceOnUse" color-interpolation-filters="sRGB"><feFlood flood-color="#fff" result="bg"/><feBlend in="SourceGraphic" in2="bg"/></filter><mask id="mask" x="141.55" y="79.49" width="7.42" height="20.29" maskUnits="userSpaceOnUse"><g class="cls-16"><g transform="translate(-321.11 -190.9)"><path class="cls-1" d="M463.32,277.7a23.66,23.66,0,0,0,1.2,7.87,12.42,12.42,0,0,0,1.91,3.57q2-.94,2.4-4.3a20.79,20.79,0,0,0-.49-6.28q-1.46-7.56-4.42-6.92a.41.41,0,0,1-.26,0q-.08.34-.15.73A41,41,0,0,0,463.32,277.7Z"/></g></g></mask></defs><title>welcome-block</title><path d="M356,203.76a.35.35,0,0,1,.31.43,5.94,5.94,0,0,1-.93,2.19q-.16.31-1.21,3.18-.28.77-1.24,3.15-.77,2-1.17,3.21-1.73,5.31-1.79,5.59a14.15,14.15,0,0,1-1.27,3.68q.12.62-.43.56a14.85,14.85,0,0,0-4.63.71.42.42,0,0,1-.59-.34.41.41,0,0,1-.46,0,.58.58,0,0,1-.19,0q-6.46-3.09-6.15-2.72a.46.46,0,0,1-.43,0,.38.38,0,0,1-.25-.4q0-.9,0-1.92-.71.16-2,.49-.43.12-.56-.34a.47.47,0,0,1-.49,0,.58.58,0,0,1-.19,0q-6.46-3.12-6.15-2.72a.46.46,0,0,1-.43,0,.43.43,0,0,1-.22-.4q0-2.56-.46-7.32-.12-1.3-.53-7.26a53.29,53.29,0,0,1-.19-5.87,23,23,0,0,0,0-2.41,3.67,3.67,0,0,0-.4-1.88.48.48,0,0,1,0-.59.47.47,0,0,1,.46-.25.38.38,0,0,1,.15-.09,24.27,24.27,0,0,1,4.48-1.14.4.4,0,0,1,.53-.19q.46.19,1.36.46t1.36.46a5.85,5.85,0,0,1,2.22,1.14.36.36,0,0,1,.12.25.46.46,0,0,1,.12.22.47.47,0,0,1-.06.46,4.43,4.43,0,0,1-.06,1,1.48,1.48,0,0,1-.06.4,2.4,2.4,0,0,0-.19.49,2.52,2.52,0,0,0,0,1.3l-.06.25h.09l.15-.06a23.66,23.66,0,0,1,4.51-1.17.37.37,0,0,1,.49-.19q.49.19,1.39.46l1.36.46a5.84,5.84,0,0,1,2.22,1.14.7.7,0,0,1,.12.25.56.56,0,0,1,.06.68,4.45,4.45,0,0,1-.06,1,11.37,11.37,0,0,1-.28,1.42.32.32,0,0,1,.31,0,.41.41,0,0,1,.37-.19,12.42,12.42,0,0,0,3.12-.31,10.74,10.74,0,0,1,3.09-.28.43.43,0,0,1,.4.28,10.84,10.84,0,0,1,4.2,2.78A.4.4,0,0,1,356,203.76ZM342.68,225q.68-1.76,1.85-5.62,1.17-3.71,1.88-5.62,1-2.72,1.92-4.67.46-1.08.74-1.88a2.71,2.71,0,0,0,.28-1.54.54.54,0,0,1-.06-.25,7.34,7.34,0,0,1-1.14-.77q-.8-.59-1.11-.77l-1.42-.83-.56-.31a6.55,6.55,0,0,1-.49,1.42q-1.21,2.78-1.58,3.74-1.21,3.06-1.48,3.74a19.84,19.84,0,0,0-.71,1.85,7.83,7.83,0,0,1-.34,1.95.33.33,0,0,1-.09.25.49.49,0,0,0,0,.12.47.47,0,0,1-.62.31c-.31-.08-.41-.27-.31-.56a2.47,2.47,0,0,0,.12-.31V215a7.44,7.44,0,0,1,.31-1.79q0,.19-.28-4.26,0-.25,0-3.74.06-3.77.09-4.51a10.48,10.48,0,0,1-2.29-1,2,2,0,0,0-.31-.19,1.66,1.66,0,0,0-.9-.56l-.22-.06a7.19,7.19,0,0,0-.68-.25,2,2,0,0,1,.06.28,1.75,1.75,0,0,0-.9.43q-1.11,2.5-1.51,3.49-1.21,3.09-1.48,3.74-.53,1.27-.71,1.88a6.65,6.65,0,0,1-.31,1.92.38.38,0,0,1-.09.28.35.35,0,0,1-.06.12.45.45,0,0,1-.62.28q-.46-.12-.28-.56a2.14,2.14,0,0,1,.09-.28V210a6.61,6.61,0,0,1,.34-1.76q0,.19-.31-4.26,0-.25,0-3.74,0-3.77.09-4.51a9.18,9.18,0,0,1-2.29-1,12.64,12.64,0,0,0-2.13-1,11.86,11.86,0,0,1,.15,2.93q-.06,3.49.12,6,.46,6.74.56,7.54.46,5,.46,7.42a.5.5,0,0,1,.43.22,6.07,6.07,0,0,0,3,1.54l2.6.8a.2.2,0,0,1,.12-.09q.62-1.67,2-6.27,0-.15.06.37a2.24,2.24,0,0,1,.46-.71.47.47,0,0,1,.65,0,.43.43,0,0,1,.12.59q.06.74.09,1.14.49,5,.49,7.42a.5.5,0,0,1,.43.22,5.85,5.85,0,0,0,3,1.54l2.59.8.06-.06Zm-13-33a18.83,18.83,0,0,0-3.92.9,11.62,11.62,0,0,1,1.88.93,15,15,0,0,0,1.92.93s0,0,0,0a8.49,8.49,0,0,0,1.33-.43q.86-.31,1.33-.43l.93-.22.49-.15a7.92,7.92,0,0,0-1.92-.8l-1-.34q-.71-.22-1-.34Zm3.68,5.44a.46.46,0,0,1-.09-.43q.34-1.54.37-1.61a8.13,8.13,0,0,0,.12-.93h0l-.37.09-.31.06q-.49.12-1.3.4l-1.27.43.12.12a.43.43,0,0,1-.12.74q0,.71-.06,3.92,0,3.62,0,3.92t.19,1.88q.74-1.67.93-2.19.8-2.19,1.61-4,.06-.15.25-.53-.62-.15-.34-.71A3.27,3.27,0,0,0,333.35,197.42Zm.09,23.11q1.3-.34,2.1-.49-.09-1.58-.34-4.11a.44.44,0,0,1-.25.06v.06Q334.09,218.77,333.44,220.53Zm6.3-23.57a18.27,18.27,0,0,0-3.92.9,11.65,11.65,0,0,1,1.89.93,13.75,13.75,0,0,0,1.88.93c.06,0,.07,0,0,0q.46-.12,1.33-.43a9.19,9.19,0,0,1,1.3-.43l.93-.25.53-.15a10.16,10.16,0,0,0-1.92-.8l-1-.34q-.71-.22-1-.34Zm3.68,5.44a.42.42,0,0,1-.09-.4q.34-1.54.34-1.64a5.52,5.52,0,0,0,.16-.9v0l-.68.16q-.49.12-1.3.4-1,.37-1.27.43l.12.12a.43.43,0,0,1-.12.74q0,.74-.06,3.92,0,3.62,0,4t.15,1.89q.74-1.7.93-2.22.8-2.19,1.61-4a4.54,4.54,0,0,0,.25-.53.45.45,0,0,1-.34-.71A2.93,2.93,0,0,0,343.42,202.4Zm10.87,4.11q.12-.28.46-.86a6.37,6.37,0,0,0,.46-.87,9.29,9.29,0,0,0-2.29.28l-1.24.34-.49.09a4,4,0,0,0-.56.12.3.3,0,0,1-.15.12l-.09.06a.09.09,0,0,0-.06,0,7.88,7.88,0,0,1-.74,2.69l-1,2.22q-.59,1.39-.93,2.26-.83,2.13-2.13,6.24-1.36,4.36-2.1,6.3a15.19,15.19,0,0,1,4.39-.74,4.7,4.7,0,0,0,.65-1.48q.19-.52.62-2.22s.59-1.82,1.76-5.41l2.32-6.15q.12-.4.53-1.51l.34-1Zm-3.46-5a11.29,11.29,0,0,0-2.44.28,21.44,21.44,0,0,1-2.44.34l.28.19q.93.53,1.27.74a10.53,10.53,0,0,1,1.17.77,7.19,7.19,0,0,0,1.64,1l.28-.06a1,1,0,0,1,.25-.06l1.64-.46a11.9,11.9,0,0,1,2.41-.37A13.8,13.8,0,0,0,350.83,201.47Z" transform="translate(-321.11 -190.9)"/><path d="M378.48,217.94a.41.41,0,0,1,.59.15.37.37,0,0,1,0,.59l-1.14,1.17q-.71.77-1.14,1.17-1.85,1.67-1.85,1.64a.37.37,0,0,1-.4.25q-.53.37-.71-.15h-.06a35.29,35.29,0,0,0-6,0q-4.63.22-7,.09a.46.46,0,0,1-.49-.46,6.36,6.36,0,0,1,.25-2.5,13.41,13.41,0,0,1,0-2.38q.22-2,.22-2.35.15-3.49.43-6.43.4-3.65.43-6.3a26.54,26.54,0,0,1,.46-5.28.47.47,0,0,1-.25-.37.42.42,0,0,1,.22-.43,5.1,5.1,0,0,0,1.05-.77,12.19,12.19,0,0,1,1-.8,13.86,13.86,0,0,1,1.79-1.05q1.23-.68,1.79-1.05a.39.39,0,0,1,.46,0,.44.44,0,0,1,.43-.31l4.88.34q2,.15,2.47.25l.4.09.4.06c.23.06.34.08.34.06a.5.5,0,0,1,.4.12.09.09,0,0,1,.06,0,.27.27,0,0,0,.12,0,.61.61,0,0,1,.19,0s0-.05,0,0a.49.49,0,0,1,.65-.31.37.37,0,0,1,.28.56,7.16,7.16,0,0,0-.25,2.59,15.57,15.57,0,0,0,.15,1.82.47.47,0,0,1,.34.31.48.48,0,0,1-.09.49h0q0,.62-.56.53-.22.19-1.64,1.24a13.69,13.69,0,0,0-1.2.9,3.23,3.23,0,0,0-.68.68.48.48,0,0,1-.56.31q-.22.49-.65.22a3.71,3.71,0,0,0-1.3-.43q-.28.28-.09,1.14l1,.09c.41,0,.74.06,1,.06a9.06,9.06,0,0,0,1.58,0,.47.47,0,0,1,.62-.25.36.36,0,0,1,.59.15.48.48,0,0,1-.12.68l-.31.19a8.54,8.54,0,0,0-.06,2.16,17.59,17.59,0,0,0,.31,2.5.48.48,0,0,1-.15.49.54.54,0,0,1-.46.09q-.53.53-3.68,2.84a.37.37,0,0,1-.4.06.38.38,0,0,1-.15.09.69.69,0,0,1-.12.31q-.12.12,0,.62l0,.15a27.82,27.82,0,0,0,5.41-.12.39.39,0,0,1,.56.28.48.48,0,0,1,.59-.09.38.38,0,0,1,.25.53l-.34,1Zm-4.67,3.86q0-.34.06-2.19a12.3,12.3,0,0,1,.15-2.16.56.56,0,0,1-.25-.19h-5.87a.27.27,0,0,1-.12,0,.41.41,0,0,1-.46-.46q0-.65-.09-2.22-.09-1.42-.09-2.22a.8.8,0,0,1-.49-.34.42.42,0,0,1,.15-.68l.19-.06c.1,0,.11,0,0,0a.48.48,0,0,1,.34-.06.44.44,0,0,1,.46-.09.39.39,0,0,1,.31.4,3.09,3.09,0,0,0,.49,0l.59,0a3.7,3.7,0,0,0,.56,0,5.88,5.88,0,0,1,1.88.15q0-.49-.09-1.58t-.06-1.58a7.06,7.06,0,0,1,0-1.27q-1.42,0-2-.06a6.24,6.24,0,0,1-1.61-.22.37.37,0,0,1-.49-.19l-.19-.06a0,0,0,0,0,0,0,.09.09,0,0,0-.06,0q-.43-.28-.09-.71v-.49a6.51,6.51,0,0,0,0-.9q0-.49,0-1.24a5.38,5.38,0,0,1,0-1.08.48.48,0,0,1-.09-.49.44.44,0,0,1,.43-.31h.06a.47.47,0,0,1,.62,0q4.66-.28,5.87.4a.81.81,0,0,1,.15-.22q-.46,0-.46-.46v-3.12q-.4-.12-5.19-.37-4.6-.22-5.47-.15a30.72,30.72,0,0,0-.43,5.56q-.12,2.9-.46,6.09-.16,1.58-.4,6.18-.25,4.91-.28,4.48a.46.46,0,0,1,0,.37,1.2,1.2,0,0,1-.09.25,4.88,4.88,0,0,0-.19,1.67q2.6.09,6.8-.12A30,30,0,0,1,373.82,221.8Zm-9.36-26.11q-.22.16-.83.71,1,0,2.59.06,2,.12,2.63.12a31.13,31.13,0,0,1,5,.34l2-2.1.31-.34a5,5,0,0,0,.37-.4l-.43-.12a19.52,19.52,0,0,0-2.38-.28l-5.13-.37a.69.69,0,0,1-.22,0,.37.37,0,0,1-.19.25q-.53.34-1.88,1.05A15.25,15.25,0,0,0,364.46,195.69Zm6.83,7.72a2.83,2.83,0,0,1,0-1.33h-.83l-1.24.09q-.83.06-1.24.06a3.35,3.35,0,0,0,0,1q0,.53,0,1.24v1.27a17.37,17.37,0,0,0,3.12-1.95A.58.58,0,0,1,371.29,203.42ZM371,214.11a2.56,2.56,0,0,0-.09-.53,2.2,2.2,0,0,1-.09-.56,1.43,1.43,0,0,1,.15-.65q-.12,0-2.32,0l-.53,0q0,.4.12,3.18a5.55,5.55,0,0,0,1.7-1A4.37,4.37,0,0,1,371,214.11Zm1.21.4a.46.46,0,0,1-.43.37,6.13,6.13,0,0,0-1.92,1,3.92,3.92,0,0,1-.68.4h5a8,8,0,0,1,2-1.7Q375.73,214.66,372.18,214.51Zm.06-10.26a.53.53,0,0,1-.53.25,11.36,11.36,0,0,1-2.53,1.64h.86q.25,0,1.79,0a.84.84,0,0,1,.22-.25.43.43,0,0,1,.46-.09,9.24,9.24,0,0,1,1-.71l1.05-.68-.25,0c-.25,0-.6,0-1.05-.06l-.74-.06Zm3.24.71q-2.84,2.13-2.75,2a.54.54,0,0,1-.28.15,12.86,12.86,0,0,0,0,1.88q0,.34.06,1t.06,1a25.28,25.28,0,0,0,3.18-2.53,17.44,17.44,0,0,1-.25-2.16Q375.49,205.42,375.49,205Zm2.1-10.57q-.09.06-1.33,1.33l-1.42,1.51a.49.49,0,0,1-.25.8q0,.43,0,2.84a13.23,13.23,0,0,1,1.21-.93q1.88-1.39,2-1.54a9.19,9.19,0,0,1-.28-2.32Q377.56,194.92,377.59,194.39Zm-1.48,26,1.48-1.54a.09.09,0,0,1,0-.06q0-.25-.09-1.85a14.1,14.1,0,0,1,0-1.88,7.17,7.17,0,0,0-2.22,1.54.12.12,0,0,1,0,.09,21.65,21.65,0,0,0-.4,4.67l.65-.46A7.46,7.46,0,0,0,376.11,220.35Z" transform="translate(-321.11 -190.9)"/><path d="M405.27,210.46a30.38,30.38,0,0,0,.56,3.55,16,16,0,0,1,.37,3.55.43.43,0,0,1-.34.46,1.12,1.12,0,0,1-.59,0,.48.48,0,0,1-.34.49,22.19,22.19,0,0,0-9,4.94.42.42,0,0,1-.37.12.45.45,0,0,1-.68.28q-3.46-1.61-5.65-.9-.62.19-.59-.49a.46.46,0,0,1-.22-.12q-.87-.83-1.61-4.57-.22-1.23-.8-3.58t-.83-3.58a44,44,0,0,0-1.48-5.9q-.56-1.61-.71-2.22a2.36,2.36,0,0,1-.09-1.2.47.47,0,0,1-.25-.37.42.42,0,0,1,.12-.37q-.12-.49.31-.59a12.75,12.75,0,0,0,2.84-1.27,13.1,13.1,0,0,0,1.92-1.24.45.45,0,0,1,.4-.37l0,0a.41.41,0,0,1,.59-.06.45.45,0,0,1,.22.56,6.4,6.4,0,0,0,2.44.93q2.16.46,2.59.62l.31-.22a.37.37,0,0,1,.43,0q.56-.09.59.46.09,1.11,1.64,7.2.65,2.53,1,3.46a4.17,4.17,0,0,1,2.81-.83,9.09,9.09,0,0,1,3.71.71.74.74,0,0,1,.19.12Q405.27,209.93,405.27,210.46ZM395.14,223a.09.09,0,0,0,0-.06,15.88,15.88,0,0,1-2-5.31q-1.08-4.73-1.36-5.59-.22-.53-.62-1.58t-.59-1.61s-.29-.94-.87-2.87a12.65,12.65,0,0,1-.74-3.61.48.48,0,0,1-.34,0,8.14,8.14,0,0,0-2.38-.49q-2-.19-2.44-.25l0,0a4,4,0,0,0,.37,1.48l.71,2.07a50.86,50.86,0,0,1,1.33,5.69q.22,1.11.77,3.27t.74,3.27q.34,1.7.53,2.38a4.36,4.36,0,0,0,.86,1.92.54.54,0,0,1,.16.28Q391.61,221.4,395.14,223Zm-8.93-23.33a15.38,15.38,0,0,1-2.16,1q.43.09,2.44.25a8.11,8.11,0,0,1,2.38.49.46.46,0,0,1,.22.15.4.4,0,0,1,.34-.46,21.05,21.05,0,0,0,3.58-1.36,28.87,28.87,0,0,1-4.63-1.48A14.8,14.8,0,0,1,386.21,199.65Zm18.6,17.95a.51.51,0,0,1,.46-.46,19.32,19.32,0,0,0-.4-3q-.4-2.25-.49-3.06a38.5,38.5,0,0,1-4.48,2.29.46.46,0,0,1-.56.06.36.36,0,0,1-.59-.06,17.72,17.72,0,0,1-2.56-6.36q-1.55-6-1.64-7A18.36,18.36,0,0,1,390,201.9a.38.38,0,0,1-.06.22,3.83,3.83,0,0,0,.22,2.07l.31,1q.19.62.28,1a22.41,22.41,0,0,0,1,3q.83,2.26,1.05,2.94,3.34,10.54,3.09,10.13a23.49,23.49,0,0,1,8.8-4.63A.27.27,0,0,1,404.81,217.6Zm-3.8-7.48q-2,0-2.6.83a9.69,9.69,0,0,0,.93,1.61q.34-.25,4.11-2.1A8.31,8.31,0,0,0,401,210.12Z" transform="translate(-321.11 -190.9)"/><path d="M432.49,219.57a.43.43,0,0,1,.12.43.56.56,0,0,1-.34.34,1.88,1.88,0,0,1-1.05.9,15.81,15.81,0,0,1-2.59.87,33,33,0,0,1-5.65,1q-4.79.43-7.41-2.41l-.25-.31h-.06a3.91,3.91,0,0,1-2-1.48q-.62-.74-1.82-2.44a14.86,14.86,0,0,1-2.5-6.92q-1.14-8.53,2.81-9.82a4.48,4.48,0,0,1,1-1,14.13,14.13,0,0,1,3.34-1.95,14.41,14.41,0,0,1,3.65-.86,8.13,8.13,0,0,1,3.65.19.49.49,0,0,1,.53.06,23.48,23.48,0,0,1,2.78,2.9,7.4,7.4,0,0,1,1.76,2.87q.62.43,1,.68t.19.65a41.48,41.48,0,0,0-2.84,5,.38.38,0,0,1-.25.28.46.46,0,0,1-.49.19,6.4,6.4,0,0,0-4,.37q-2.29.9-2.29,2.78l.12.06a3.31,3.31,0,0,0,2.72.31A6.12,6.12,0,0,0,425.2,211h0q0-.46.46-.46a.44.44,0,0,1,.49.46,5.61,5.61,0,0,0,1,1.73,12.19,12.19,0,0,0,.87,1.08l.12.12a.39.39,0,0,1,.53.34l.06.19s0,.06,0,.06a10.16,10.16,0,0,0,1.58,2.63A27.56,27.56,0,0,0,432.49,219.57ZM413.73,218s0,0,.12.16a14.15,14.15,0,0,1-1.24-7.57,12.25,12.25,0,0,1,3.21-7.48,11.07,11.07,0,0,1,7.23-3.27.41.41,0,0,1,.37-.19,6.44,6.44,0,0,1,3.46,1.24q-.53-.71-1.21-1.51-1.05-1.17-2-2.07a.3.3,0,0,1-.22-.09q-1-.65-3.74-.31a13.29,13.29,0,0,0-3.12.71,13.48,13.48,0,0,0-2.69,1.45,7.48,7.48,0,0,0-1.39,1.11.35.35,0,0,1-.19.34.68.68,0,0,0,0,.49.44.44,0,0,1-.22.65.38.38,0,0,1-.62-.19,2.19,2.19,0,0,1-.12-.49,4.47,4.47,0,0,0-1.64,3.4,21.12,21.12,0,0,0,.15,5.16,14,14,0,0,0,2.29,6.39Q413.33,217.47,413.73,218Zm17.67,2a.35.35,0,0,1,0-.16,23,23,0,0,1-1.88-2.26,11.29,11.29,0,0,1-1.61-2.53,8.66,8.66,0,0,1-5.28,1.08,3.94,3.94,0,0,1-3.71-3.27,3.7,3.7,0,0,1,1.95-4.26,7.31,7.31,0,0,1,5-.86,30,30,0,0,1,2.63-4.57l-1.14-.77-1.17-.77a6.59,6.59,0,0,0-2.53-1.05.54.54,0,0,1-.28.16,9.68,9.68,0,0,0-7.88,4.17,12.34,12.34,0,0,0-1.95,8.84q.9,7,6,8.16a16.28,16.28,0,0,0,6.61-.22,31.7,31.7,0,0,0,3.49-.87,7.13,7.13,0,0,0,1.3-.53,1.37,1.37,0,0,0,.34-.22Zm-5.9-8.06q-3,2.16-5.5,1.14a3.27,3.27,0,0,0,3.09,2.16,7.76,7.76,0,0,0,4.14-.87l-.77-1.08A14.85,14.85,0,0,1,425.51,211.94Z" transform="translate(-321.11 -190.9)"/><path d="M457.85,203.29q4.11,6.92.93,12.64a13,13,0,0,1-8.84,6.61,11.43,11.43,0,0,1-7.82-.8,8.32,8.32,0,0,1-4.42-5,.58.58,0,0,1-.19,0q-2.13-.8-2.81-4.45a14.56,14.56,0,0,1,.43-8,11.66,11.66,0,0,1,6.18-7q6-2.62,10-.71,2.35,1.11,6.24,6.46A.49.49,0,0,1,457.85,203.29Zm-22,9.67a4.39,4.39,0,0,0,1.61,2.66q-.06-.4-.09-.77a17.11,17.11,0,0,1,1.67-8.37q2.22-4.94,5.44-5.81l.06,0a.47.47,0,0,1,.31-.34.36.36,0,0,1,.46.12h.15a4.64,4.64,0,0,0,.53,0q.56,0,1.36-.06l3.12-.15a9.47,9.47,0,0,1,5,1.48q-3.52-4.76-7.29-4.91-6.15-.22-9.61,3.68a12,12,0,0,0-3.18,8.53q.06,2.35.06,2.35Zm23,.56q1.3-4.36-1.54-9.39A.47.47,0,0,1,457,204l0,0a14.93,14.93,0,0,0-4.33-2.41,8.54,8.54,0,0,0-3.06-.34q-3.46.19-3.18.19a6.13,6.13,0,0,1-1.45-.06.47.47,0,0,1-.31.25q-3.34.93-5.38,6.74-2,5.65-.4,9,2,4.17,7.2,4.57a12.13,12.13,0,0,0,7.75-2.07l3.8-2.53Zm-10.29-6.7q3-.31,3.24,3.15a5.79,5.79,0,0,1-1.61,5,3,3,0,0,1-2.53.87,2.8,2.8,0,0,1-2.26-2,5.28,5.28,0,0,1,0-3.65,6.92,6.92,0,0,1,2.72-2.9A.42.42,0,0,1,448.49,206.81Zm1.33,7.07a6,6,0,0,0,1-3.61q0-2.41-1.85-2.53v.09a4.26,4.26,0,0,1-.8,2.66,4.43,4.43,0,0,1-2.16,1.79,3.88,3.88,0,0,0,.28,1.27q.68,1.67,2.13,1.3A2.31,2.31,0,0,0,449.82,213.89ZM448,208.45a4.7,4.7,0,0,0-1.79,2.13l-.12.56a.09.09,0,0,0,.06,0A3.7,3.7,0,0,0,448,208.45Z" transform="translate(-321.11 -190.9)"/><path d="M462.3,218.58q-.53-.22-.19-.74v-.4q0-.49.06-1.92.22-4.29.28-4.7.15-1.39.59-3.52.56-3,.68-3.52.37-2.29.62-3.24a15.16,15.16,0,0,0,.53-3.18.38.38,0,0,1,.25-.4.44.44,0,0,1,.62-.28h0a13.47,13.47,0,0,0,1.85-1.17q.56-.4,1.05-.83a5,5,0,0,1,.4-.34.52.52,0,0,1,0-.49.39.39,0,0,1,.43-.22,18.51,18.51,0,0,0,2.32.25,12,12,0,0,0,1.92,0,.44.44,0,0,1,.65.31.39.39,0,0,1,.15.09,11,11,0,0,1,2.19,3.31,8.28,8.28,0,0,1,.93,2.56.73.73,0,0,1,.09-.19,7.85,7.85,0,0,1,2.35-1.79q1.82-1,1.95-1.08a.45.45,0,0,1-.15-.56.36.36,0,0,1,.46-.28l.43.06a.47.47,0,0,1,.59.12q.77.16,2.13.49,2.19.56,2.29,1.08v.12l.06.06a.55.55,0,0,1,.56.06.42.42,0,0,1,.12.53,4.12,4.12,0,0,0,.09,1.76l.19,1.05.19,1.05q.8,4.85,1.05,6,.49,2,1.14,6.27t1.14,6.24q.12.59-.53.53a9.92,9.92,0,0,1-2.9,1.27,8.38,8.38,0,0,0-2.87,1.3.4.4,0,0,1-.65-.06.48.48,0,0,1-.34-.06,11.93,11.93,0,0,0-3.21-1,21.81,21.81,0,0,1-3.31-.8.38.38,0,0,1-.28-.28.67.67,0,0,1,0-.22,16.24,16.24,0,0,0-.06-2.41,29.11,29.11,0,0,0-3.65,1.58.4.4,0,0,1-.62-.22.76.76,0,0,1-.31-.28c-.1-.19-.12-.23-.06-.12a1.12,1.12,0,0,1-.06-.15q-.49.46-.77-.12-.4-.9-.93-2.38a.42.42,0,0,1-.09.34,8.51,8.51,0,0,1-1.48,1.08q-.77.49-1.24.74a.59.59,0,0,1-.31.28.47.47,0,0,1-.12.46.39.39,0,0,1-.46.06q-1-.43-2.84-1.05T462.3,218.58Zm.77-.71q.74.31,2.32.83t2.29.8a.52.52,0,0,1,.25-.22c-.06,0-.05,0,0,0a34.62,34.62,0,0,1-.15-4.82l.28-1.85q.15-1.33-.12-1.61a.33.33,0,0,1-.09-.43.48.48,0,0,1,.37-.31.47.47,0,0,1,.34-.34.45.45,0,0,1,.49.12q.15.22,4.45,9.64l0,.06a.36.36,0,0,1,.34-.15q0,.09,1.92-3.77a13.94,13.94,0,0,0,1.42-3.74v-1a.41.41,0,0,1,.49-.43q.49.06.46.53v.06a.55.55,0,0,1,.06.25q0,.34-.06.71a41.17,41.17,0,0,0,.53,4.66,29.3,29.3,0,0,1,.43,4.7,24,24,0,0,0,2.9.68,14.59,14.59,0,0,1,2.84.8l0,0a1.9,1.9,0,0,1-.06-.31q0-.12-.19-.83-.09-.43-.34-2.63-.46-4-.87-6.46-.59-3.86-.74-5.9-.28-3.61-1.17-4.57a.37.37,0,0,1-.12-.34q-.4-.12-1.05-.28a8.59,8.59,0,0,0-1.14-.25l-.4-.06c-.06,0-.07,0,0-.06a.4.4,0,0,1-.62-.22h-.06l-.19.22q-.19.19-.56.62-.59.68-1.54,1.95-.53.65-1.33,1.73l-1.33,1.76a.45.45,0,0,1-.56.15.48.48,0,0,1-.34-.4l-.06-.12a43.94,43.94,0,0,1-1.51-4.2,43.38,43.38,0,0,0-1.48-4.2.33.33,0,0,1-.06-.19q-.31,0-1.27-.22-1.14-.22-2.1-.49a10.79,10.79,0,0,1-.4,2.5q-.37,1.58-.65,3.15l-.62,3.4q-.43,2.19-.62,3.43-.16.93-.34,4.67-.06,1.67-.09,1.95,0,.46,0,.83v0Zm10.26-23-1.3-.06a16.85,16.85,0,0,1-2.1-.16,5.51,5.51,0,0,1-1.36,1.27,16.93,16.93,0,0,1-1.54,1.11l.8.19a7.11,7.11,0,0,0,1.88.25h.09a8.21,8.21,0,0,1,.74-.65q.68-.49,1.3-.86a6.3,6.3,0,0,0,1.48-1Zm-3.86,23.57a6.5,6.5,0,0,0,1.36-1,.51.51,0,0,1,.46-.19.58.58,0,0,1,.4.28,29.84,29.84,0,0,0-2.56-5.87q0,.37-.28,2.29a12.46,12.46,0,0,0-.19,2.32s.07.84.22,2.47Zm7-18.91a16.46,16.46,0,0,0-.71-1.7,11.22,11.22,0,0,0-1.58-2.56q-.22.56-1.82,1.45a10.51,10.51,0,0,0-1.08.74q-.28.19-.59.43a2.7,2.7,0,0,0-.28.25l0,0a.51.51,0,0,1-.16.37q.53,1.24,1.33,3.8t1.33,3.8l2.41-3.18q.9-1.14,1.51-1.85-.49-.25-.19-.65Q476.73,200.36,476.48,199.55Zm-1.61,20.17a15.5,15.5,0,0,1,2.5-1.11.47.47,0,0,1,.62-.31s0,0,0,0q-.09-.65-.28-1.88t-.28-1.85q-.28.62-.83,1.73L476,217.6l-.65,1.24Q475.09,219.23,474.87,219.73ZM487,198.5a.45.45,0,0,1-.12-.09l-.12-.06a3,3,0,0,0-.46-.15,14.08,14.08,0,0,0-1.48-.4q-1-.28-1.73-.4a8,8,0,0,1-2.29,1.48,7.71,7.71,0,0,0-2.26,1.54,1.92,1.92,0,0,1,.56,0q.52.09,1.42.31a9.26,9.26,0,0,1,1.61.43.63.63,0,0,1,.43,0l2.47-1.51,1.14-.62c.21-.1.41-.22.62-.34l.19-.12,0,0Zm-1.24,24.68a11.6,11.6,0,0,1,2.63-1.11,9.82,9.82,0,0,0,2.81-1.21q-.34-1.61-1-5.84-.49-3.24-1.24-6.46,0-.12-1.05-6-.46-2.81-.4-2.35a5,5,0,0,1-.09-.8,7.59,7.59,0,0,1-1,.56,20.76,20.76,0,0,0-3.65,2.22l-.12.12a11.19,11.19,0,0,1,.93,4.42q.09,1.36,1,7.17.22,1.39.46,3.71.34,2.75.46,3.68A16,16,0,0,0,485.81,223.19Z" transform="translate(-321.11 -190.9)"/><path d="M515.13,217.94a.41.41,0,0,1,.59.15.37.37,0,0,1,0,.59l-1.14,1.17q-.71.77-1.14,1.17-1.85,1.67-1.85,1.64a.37.37,0,0,1-.4.25q-.53.37-.71-.15h-.06a35.29,35.29,0,0,0-6,0q-4.63.22-7,.09a.46.46,0,0,1-.49-.46,6.36,6.36,0,0,1,.25-2.5,13.41,13.41,0,0,1,0-2.38q.22-2,.22-2.35.15-3.49.43-6.43.4-3.65.43-6.3a26.54,26.54,0,0,1,.46-5.28.47.47,0,0,1-.25-.37.42.42,0,0,1,.22-.43,5.1,5.1,0,0,0,1.05-.77,12.19,12.19,0,0,1,1-.8,13.86,13.86,0,0,1,1.79-1.05q1.23-.68,1.79-1.05a.39.39,0,0,1,.46,0,.44.44,0,0,1,.43-.31l4.88.34q2,.15,2.47.25l.4.09.4.06c.23.06.34.08.34.06a.5.5,0,0,1,.4.12.09.09,0,0,1,.06,0,.27.27,0,0,0,.12,0,.61.61,0,0,1,.19,0s0-.05,0,0a.49.49,0,0,1,.65-.31.37.37,0,0,1,.28.56,7.16,7.16,0,0,0-.25,2.59,15.57,15.57,0,0,0,.15,1.82.47.47,0,0,1,.34.31.48.48,0,0,1-.09.49h0q0,.62-.56.53-.22.19-1.64,1.24a13.69,13.69,0,0,0-1.2.9,3.23,3.23,0,0,0-.68.68.48.48,0,0,1-.56.31q-.22.49-.65.22a3.71,3.71,0,0,0-1.3-.43q-.28.28-.09,1.14l1,.09c.41,0,.74.06,1,.06a9.06,9.06,0,0,0,1.58,0,.47.47,0,0,1,.62-.25.36.36,0,0,1,.59.15.48.48,0,0,1-.12.68l-.31.19a8.54,8.54,0,0,0-.06,2.16,17.59,17.59,0,0,0,.31,2.5.48.48,0,0,1-.15.49.54.54,0,0,1-.46.09q-.53.53-3.68,2.84a.37.37,0,0,1-.4.06.38.38,0,0,1-.15.09.69.69,0,0,1-.12.31q-.12.12,0,.62l0,.15a27.82,27.82,0,0,0,5.41-.12.39.39,0,0,1,.56.28.48.48,0,0,1,.59-.09.38.38,0,0,1,.25.53l-.34,1Zm-4.67,3.86q0-.34.06-2.19a12.3,12.3,0,0,1,.15-2.16.56.56,0,0,1-.25-.19h-5.87a.27.27,0,0,1-.12,0,.41.41,0,0,1-.46-.46q0-.65-.09-2.22-.09-1.42-.09-2.22a.8.8,0,0,1-.49-.34.42.42,0,0,1,.15-.68l.19-.06c.1,0,.11,0,0,0a.48.48,0,0,1,.34-.06.44.44,0,0,1,.46-.09.39.39,0,0,1,.31.4,3.09,3.09,0,0,0,.49,0l.59,0a3.7,3.7,0,0,0,.56,0,5.88,5.88,0,0,1,1.88.15q0-.49-.09-1.58t-.06-1.58a7.06,7.06,0,0,1,0-1.27q-1.42,0-2-.06a6.24,6.24,0,0,1-1.61-.22.37.37,0,0,1-.49-.19l-.19-.06a0,0,0,0,0,0,0,.09.09,0,0,0-.06,0q-.43-.28-.09-.71v-.49a6.51,6.51,0,0,0,0-.9q0-.49,0-1.24a5.38,5.38,0,0,1,0-1.08.48.48,0,0,1-.09-.49.44.44,0,0,1,.43-.31h.06a.47.47,0,0,1,.62,0q4.66-.28,5.87.4a.81.81,0,0,1,.15-.22q-.46,0-.46-.46v-3.12q-.4-.12-5.19-.37-4.6-.22-5.47-.15a30.72,30.72,0,0,0-.43,5.56q-.12,2.9-.46,6.09-.16,1.58-.4,6.18-.25,4.91-.28,4.48a.46.46,0,0,1,0,.37,1.2,1.2,0,0,1-.09.25,4.88,4.88,0,0,0-.19,1.67q2.6.09,6.8-.12A30,30,0,0,1,510.46,221.8Zm-9.36-26.11q-.22.16-.83.71,1,0,2.59.06,2,.12,2.63.12a31.13,31.13,0,0,1,5,.34l2-2.1.31-.34a5,5,0,0,0,.37-.4l-.43-.12a19.52,19.52,0,0,0-2.38-.28l-5.13-.37a.69.69,0,0,1-.22,0,.37.37,0,0,1-.19.25q-.53.34-1.88,1.05A15.25,15.25,0,0,0,501.1,195.69Zm6.83,7.72a2.83,2.83,0,0,1,0-1.33h-.83l-1.24.09q-.83.06-1.24.06a3.35,3.35,0,0,0,0,1q0,.53,0,1.24v1.27a17.37,17.37,0,0,0,3.12-1.95A.58.58,0,0,1,507.93,203.42Zm-.31,10.69a2.56,2.56,0,0,0-.09-.53,2.2,2.2,0,0,1-.09-.56,1.43,1.43,0,0,1,.15-.65q-.12,0-2.32,0l-.53,0q0,.4.12,3.18a5.55,5.55,0,0,0,1.7-1A4.37,4.37,0,0,1,507.62,214.11Zm1.21.4a.46.46,0,0,1-.43.37,6.13,6.13,0,0,0-1.92,1,3.92,3.92,0,0,1-.68.4h5a8,8,0,0,1,2-1.7Q512.38,214.66,508.83,214.51Zm.06-10.26a.53.53,0,0,1-.53.25,11.36,11.36,0,0,1-2.53,1.64h.86q.25,0,1.79,0a.84.84,0,0,1,.22-.25.43.43,0,0,1,.46-.09,9.24,9.24,0,0,1,1-.71l1.05-.68-.25,0c-.25,0-.6,0-1.05-.06l-.74-.06Zm3.24.71q-2.84,2.13-2.75,2a.54.54,0,0,1-.28.15,12.86,12.86,0,0,0,0,1.88q0,.34.06,1t.06,1a25.28,25.28,0,0,0,3.18-2.53,17.44,17.44,0,0,1-.25-2.16Q512.13,205.42,512.13,205Zm2.1-10.57q-.09.06-1.33,1.33l-1.42,1.51a.49.49,0,0,1-.25.8q0,.43,0,2.84a13.23,13.23,0,0,1,1.21-.93q1.88-1.39,2-1.54a9.19,9.19,0,0,1-.28-2.32Q514.2,194.92,514.23,194.39Zm-1.48,26,1.48-1.54a.09.09,0,0,1,0-.06q0-.25-.09-1.85a14.1,14.1,0,0,1,0-1.88,7.17,7.17,0,0,0-2.22,1.54.12.12,0,0,1,0,.09,21.65,21.65,0,0,0-.4,4.67l.65-.46A7.46,7.46,0,0,0,512.75,220.35Z" transform="translate(-321.11 -190.9)"/><path d="M381.11,289.38q1.69,8.15-1.59,12.57a28.34,28.34,0,0,1-9.29,7.7q-6.66,3.78-10.19,2.58a16.92,16.92,0,0,1-4,1.09,58.55,58.55,0,0,1-17.84-.05A55.27,55.27,0,0,1,324,309.51a4.76,4.76,0,0,0,.15.75q-2-.35-2.34-1.74l-.3-.15a.87.87,0,0,1,.25-1.59q0-1,.25-2.68.3-2.19.35-2.68.15-1.69.3-5.37.1-3.53.3-5.42.25-2.19,3-24.35.94-7.55,1.59-11.58,1.39-8.75,1.24-10.93a.72.72,0,0,1,.6-.84.67.67,0,0,1,.2-.5,1.16,1.16,0,0,1,.25-.5,39.83,39.83,0,0,1,7.75-5.27q6.66-3.58,8.2-4.62a1.26,1.26,0,0,1,.3-.15.76.76,0,0,1,1-.05,12.6,12.6,0,0,0,3.73,1.34,36.49,36.49,0,0,1,3.68,1q.84.3,4.13,1.29,2.53.75,4.13,1.29,10.44,3.43,13.52,7.26,3.68,4.52,4.42,12.08a58.72,58.72,0,0,1,.25,6.56,38.15,38.15,0,0,1-.55,6.71.7.7,0,0,1-.75.6,15.42,15.42,0,0,1-5.22,6.81c.07,0,0,0-.05.05q-.25-.15.6.4a.76.76,0,0,1,.4.6q.2.25.55.65.55.65.89,1.14a22.65,22.65,0,0,1,1.94,3.08A26,26,0,0,1,381.11,289.38Z" transform="translate(-321.11 -190.9)"/><path class="cls-2" d="M353.48,311.95a20.19,20.19,0,0,0,8.2-2.34A14.19,14.19,0,0,0,367,303.4a13.59,13.59,0,0,0,1.09-8.2,44.33,44.33,0,0,0-2.24-7.7,28.59,28.59,0,0,0-2.68-5.71.67.67,0,0,1,.1-1,.92.92,0,0,1,1.09-.15l.1-.1a27.45,27.45,0,0,0,2-2.78,21.75,21.75,0,0,0,2.88-7.06,18.62,18.62,0,0,0-.15-9.29,17.24,17.24,0,0,0-4.18-7.45,19.55,19.55,0,0,0-7.36-4.13q-3.68-1.19-9.49-2.68l-2.48-.55-2.53-.6-4.42-1.14a21,21,0,0,0-2.29-.25q-1.59-.15-2.34-.25-2.78-.4-3.68-.45a8.49,8.49,0,0,1,.05,1.54q0-.2-1.49,10.59-1.24,9.19-1.59,12.23-.25,2-1.54,12.18-.94,7.45-1.39,12.23-.15,1.44-.25,4.82-.1,3.08-.3,4.82-.35,2.73-.4,3.58a1.72,1.72,0,0,0-.05.5,3.38,3.38,0,0,1-.1.55.69.69,0,0,1,.35.65,26.42,26.42,0,0,0,2.49,1,61.17,61.17,0,0,0,18.19,3.58A56.18,56.18,0,0,0,353.48,311.95Z" transform="translate(-321.11 -190.9)"/><path class="cls-2" d="M346.57,233.57q-1.79,1.19-7.36,4.17a45.16,45.16,0,0,0-7.11,4.47l1.49.25,1.49.2,2.49.25q1.54.15,2.53.35Q348,245.2,351,246q7.31,2,9.14,2.73a16.83,16.83,0,0,1,7.55,5.47q6.16,8.5,2.88,18.94A22.71,22.71,0,0,1,368,278.6q4-2.24,4.57-2.63a14.69,14.69,0,0,0,5.67-7.5.77.77,0,0,1,.6-.55,58.05,58.05,0,0,0,.3-5.91,44.2,44.2,0,0,0-.3-6.26q-.89-7.7-4.72-11.43-3-3-13.87-6.51-4.47-1.49-7.8-2.44Q347,233.82,346.57,233.57Z" transform="translate(-321.11 -190.9)"/><path d="M342.95,283.12a10.76,10.76,0,0,1,8.25,5,12.48,12.48,0,0,1,2.24,9.49,5.92,5.92,0,0,1-5.07,5.12,40.62,40.62,0,0,1-8,.15q-1,0-.84-1.14T340,296a17.1,17.1,0,0,1,1-5.57.76.76,0,0,1,.4-.45q0-.94.35-3t.4-3Q342.15,283.07,342.95,283.12Z" transform="translate(-321.11 -190.9)"/><path class="cls-3" d="M342.3,291.92a31.57,31.57,0,0,0-.75,6.76q.55-.5,2.83-2.14,6.06-4.37,6.66-5-2.19-5.62-7.31-6.51-.7,6.46-.7,6.11A.79.79,0,0,1,342.3,291.92Z" transform="translate(-321.11 -190.9)"/><path class="cls-4" d="M351.69,297.43a10.36,10.36,0,0,0-.1-4q-.7.65-5.07,3.73-2.39,1.69-3.33,2.53a7.28,7.28,0,0,0-1.49,1.49,23.45,23.45,0,0,0,6.11,0Q351.2,300.41,351.69,297.43Z" transform="translate(-321.11 -190.9)"/><path d="M346.08,257.18a16.83,16.83,0,0,0,4.82,1.44,7.84,7.84,0,0,1,4.47,2q2.68,2.88,2,7.9-.7,5.32-5,7.21a11.66,11.66,0,0,1-4.52,1,10.62,10.62,0,0,1-2.63-.35,9,9,0,0,0-2.58-.25.74.74,0,0,1-.84-.65q.1.5.55-9.54.3-6.21,1.09-8.1a.67.67,0,0,1,.65-.45,1,1,0,0,1,.7.3.91.91,0,0,1,.45-.6A.86.86,0,0,1,346.08,257.18Z" transform="translate(-321.11 -190.9)"/><path class="cls-3" d="M344.09,266.32q-.1.89-.35,2.93t-.35,2.93a33.26,33.26,0,0,1,5.86-3.63,16.82,16.82,0,0,0,5.52-4.08.75.75,0,0,1,.6-.3A4.34,4.34,0,0,0,353,261.1a20,20,0,0,0-3.93-1.09,11.07,11.07,0,0,1-3.88-1.34.16.16,0,0,1-.15-.1.44.44,0,0,1-.05.2Q344.59,259.66,344.09,266.32Z" transform="translate(-321.11 -190.9)"/><path class="cls-4" d="M355.72,267.61a7.4,7.4,0,0,0-.05-1.49,20.37,20.37,0,0,1-6,4.22q-4.82,2.49-6.06,4.08.4,0,1.74.35a7.74,7.74,0,0,0,1.74.25,10.29,10.29,0,0,0,4.37-.75A7.17,7.17,0,0,0,355.72,267.61Z" transform="translate(-321.11 -190.9)"/><path class="cls-2" d="M378.33,300.56q2.93-4.77.7-12.42a23.46,23.46,0,0,0-2.83-6.31,16.46,16.46,0,0,0-1.94-2.58,1.15,1.15,0,0,0-.35-.3,5.29,5.29,0,0,0-.65.2q-.5-.89-.65-1.19-5.91,3.58-5.86,3.53a9.27,9.27,0,0,1-1.09.3h-.35a39.85,39.85,0,0,1,2.93,7.11q3.08,9.29.5,15.11a15.62,15.62,0,0,1-5.86,6.81q2.73-.3,7.31-3.13Q376.29,303.94,378.33,300.56Z" transform="translate(-321.11 -190.9)"/><path d="M434,284.31q-.8,2.39-4.08,15.85v.05a.73.73,0,0,1-.55.89q.5-.15-14.21,4.87-.4.15-6.66,1.84-1.79.69-3.63,1.29a11.55,11.55,0,0,1-1.29.45,6.59,6.59,0,0,0-.84.4.75.75,0,0,1-.75,0l-.8.2a5.5,5.5,0,0,1-2.58,0,.58.58,0,0,0-.15-.1.65.65,0,0,1-.94-.25,8.51,8.51,0,0,0-2.73-1.94q-.89-.5-4.67-2.29-2.53-1.24-3.73-2l-.05.05-.3.25a.69.69,0,0,1-.84.35.68.68,0,0,1-.6-.7q0-.8,0-1.59a1.86,1.86,0,0,1-.1-.6.68.68,0,0,1,.2-.5q.15-1.44.84-5.42a70.93,70.93,0,0,0,.75-8.85q.1-3.28.2-9.19,0-6.41.15-9.14.2-7.5.15-7.26.1-.84.75-4.87a51.25,51.25,0,0,0,.65-5.47q.15-2.78-.45-3.58l-.6-.3a.67.67,0,0,1-.3-.94.72.72,0,0,1,.89-.45l.84.25a8.22,8.22,0,0,1,.8-.4,1.2,1.2,0,0,0,.3-.15q-.05-.84.75-.75,2.19.25,7-1.34a22.54,22.54,0,0,1,7.26-1.54,7.5,7.5,0,0,1,.79,0,.94.94,0,0,1,.3.05q.55.1,1.09.25a9.72,9.72,0,0,0,.65.8q.15.1,5.12,1.59,4.47,1.39,6.31,3.43a.72.72,0,0,1,0,1q.45.1.79.15a28.46,28.46,0,0,0-1.69,6.31.83.83,0,0,1,.05.25,29,29,0,0,1-.7,5.67q-1,4.77-1.14,5.67-.35,2.44-1,6.51-.8,5-1,6.46a13.4,13.4,0,0,1-.2,1.44.56.56,0,0,1,.15-.1,46.86,46.86,0,0,1,7-2q.3-1,1.09-.45a21.43,21.43,0,0,0,5.27,2.63q4.42,1.64,5.57,2.19a.87.87,0,0,1,.7.2l.3.3Z" transform="translate(-321.11 -190.9)"/><path class="cls-5" d="M397.76,307.87a111.26,111.26,0,0,1,1.14-13.37q1.49-11.48,1.69-13.37Q402.09,265,402,265.38q1-6.36,1-6.41a13.19,13.19,0,0,0-.25-5.42q-1.89-.6-5.37-2-4.22-1.79-7.75-3.48a6.85,6.85,0,0,1,.1,1.29,36.27,36.27,0,0,1-.45,5.37q-.15.9-.4,2.68l-.45,2.68q-.1.8-.25,6.51,0,2.93-.15,9.34-.1,6.11-.2,9.39a86.76,86.76,0,0,1-.55,8.95q-1.14,7.7-1.09,7.31l.3.3a10.19,10.19,0,0,0,1.39.89q1,.55,4.27,2.14,2.78,1.29,4.13,2.09A10.3,10.3,0,0,1,397.76,307.87Z" transform="translate(-321.11 -190.9)"/><path class="cls-5" d="M391.35,246.19a6,6,0,0,0-1.14.35q3.18,1.54,6.91,3.18,3.23,1.39,5.57,2.19l.75.2.3.1q.5.15.94.25a2.35,2.35,0,0,0,.65.1.44.44,0,0,0,.2-.05.64.64,0,0,1,.65,0q11.83-4.62,11.18-4.17l-.25-.1.35,0a14.29,14.29,0,0,0-6-2.78,20.24,20.24,0,0,1-6.16-2.39,7.28,7.28,0,0,0-1.19-.1,20.15,20.15,0,0,0-6.21,1.44,21.4,21.4,0,0,1-6.21,1.54l-.1.15Z" transform="translate(-321.11 -190.9)"/><path class="cls-5" d="M428.48,299.77q3.08-12.57,3.43-13.72-2.68.84-10.69,2.83-4.17,1-6.31,1.44-2.39.45-2.88,0c-.27.13-.48.23-.65.3q.1-.7.65-5.27.35-3.18.65-5.27.3-1.89,1-6.51.65-4.12,1-6.51.15-.94,1.14-5.81a30.12,30.12,0,0,0,.75-5.91c-.13,0-.17,0-.1,0a37.17,37.17,0,0,1,1.24-5.52,23.58,23.58,0,0,1-5.77,2.34,49.86,49.86,0,0,0-6,1.94.84.84,0,0,1-.75-.05,2.89,2.89,0,0,1-.7-.1q.6,2.63-.84,10.68-.3,1.49-1.59,16.1-.2,2.39-1.69,13.67a104.81,104.81,0,0,0-1.14,13.67.66.66,0,0,1-.25.55,4.19,4.19,0,0,0,2.19-.1,16.14,16.14,0,0,0,1.84-.45,32,32,0,0,1,4.82-1.69c.26-.1.38-.15.35-.15s-.08,0,.05.05q5.52-1.49,6.51-1.84,12.32-4.27,13.67-4.72Z" transform="translate(-321.11 -190.9)"/><path class="cls-6" d="M415,282.32a.62.62,0,0,1-1-.3q0,.35-.84,7.06l.45-.1q.94-.15,2.24-.45,2.58-.55,6.16-1.44,7.46-1.84,9.89-2.63-1-.5-4.92-1.94a23.38,23.38,0,0,1-4.77-2.19l-.05.05-7.21,2Z" transform="translate(-321.11 -190.9)"/><path d="M484.94,269.1q3.43,11.68,3.93,15.71,1,9.34-3.68,15.26a15.89,15.89,0,0,1-13.82,6.46,5.52,5.52,0,0,0-.75,0q-5.47-.1-7.55,0a71.1,71.1,0,0,1-8.85.3q-6.36-1.09-10.68-7.31a41.88,41.88,0,0,1-6.46-15.9,37.34,37.34,0,0,1,1-19.38q.45-1.39,1.74-4.52a21.74,21.74,0,0,1,1.59-3.28,9.83,9.83,0,0,1,6.41-4,57.48,57.48,0,0,1,9-1.39,71.69,71.69,0,0,0,9.84-.75.74.74,0,0,1,.8.3.87.87,0,0,1,.1.8.76.76,0,0,1,.55.35q1.54-1,4.82.05a13.78,13.78,0,0,1,5.27,2.78A12.91,12.91,0,0,1,482,260Q483.34,263.79,484.94,269.1Z" transform="translate(-321.11 -190.9)"/><path class="cls-7" d="M462.27,305q1-.1,2.24-.1a23.53,23.53,0,0,1-7.31-4.87,24.32,24.32,0,0,1-4.72-6.61,42.24,42.24,0,0,1-3.13-7.85,31.53,31.53,0,0,1-.84-9.74,40.52,40.52,0,0,1,.94-7.7q3.28-12,11.83-15.8-6.06.2-7.21.35a49,49,0,0,0-6.21,1.24q-3.48.85-4.82,2.73a29.86,29.86,0,0,0-3.48,7.9,34.24,34.24,0,0,0-1.79,10.09A42.86,42.86,0,0,0,442,293.61q4.17,9,10.29,11.08Q454.92,305.58,462.27,305Z" transform="translate(-321.11 -190.9)"/><path class="cls-7" d="M475.49,304.59a15.63,15.63,0,0,0,7.11-4,15,15,0,0,0,4.13-6.91q1.84-6.61-.65-15.31-1.09-3.73-2.88-9.69-.94-3.13-1.64-5.17a37.56,37.56,0,0,0-1.64-4.42,11,11,0,0,0-5.32-5.17,13.24,13.24,0,0,0-3.18-1q-2.09-.45-2.68.15t-1.24-.2a11.8,11.8,0,0,0-9.49,3.58,24.66,24.66,0,0,0-7,11.88,35.41,35.41,0,0,0-1,8,28.78,28.78,0,0,0,1.19,10.09q3.43,9.94,8.9,14.21a20,20,0,0,0,10.34,4.37h2.24a.46.46,0,0,1,.2,0A17.33,17.33,0,0,0,475.49,304.59Z" transform="translate(-321.11 -190.9)"/><path d="M478.82,278a20.19,20.19,0,0,1,1.14,8.1,9.84,9.84,0,0,1-3.38,7.16,6.6,6.6,0,0,1-5.22,1.49,8.93,8.93,0,0,1-5-2.34,2.16,2.16,0,0,1-.4.05.77.77,0,0,1-.65-.45.75.75,0,0,1,0-.7q-4.08-4.82-4.13-14.76a35.31,35.31,0,0,1,.35-6q.7-3.53,3.18-4.62a.86.86,0,0,1,.5,0,5,5,0,0,1,4.22-1,6.82,6.82,0,0,1,3.93,2.09,19.86,19.86,0,0,1,3.23,5.32Q478.13,275.91,478.82,278Z" transform="translate(-321.11 -190.9)"/><g class="cls-8"><path d="M464.07,271.39c2.21,0,3.55,4,4.28,7.28a20.22,20.22,0,0,1,.63,6.9,5.23,5.23,0,0,1-2,3.85,14.18,14.18,0,0,1-1.85-3.26,23.29,23.29,0,0,1-1.51-8.72,41.13,41.13,0,0,1,.23-6l0-.08h.15m0-1a3.23,3.23,0,0,0-.6.06l-.19,0-.16,0q-.1.4-.2.84a41.32,41.32,0,0,0-.25,6.16,24.14,24.14,0,0,0,1.59,9.09,13.89,13.89,0,0,0,2.53,4.13q2.63-1.09,3.18-5a21,21,0,0,0-.65-7.26q-1.79-8.06-5.26-8.06Z" transform="translate(-321.11 -190.9)"/></g><path class="cls-9" d="M478.43,285.75a20.62,20.62,0,0,0-1.69-9.1q-1.39-3.38-2-4.67a17.05,17.05,0,0,0-2.34-3.78,5.87,5.87,0,0,0-3.08-1.79,3.35,3.35,0,0,0-3.28.7.66.66,0,0,1-.75.2,3.69,3.69,0,0,0-1.59,1.59q5.12-.35,7.16,9.34,1.34,6.46.25,9.09a9.45,9.45,0,0,1-3.13,4.42,6.28,6.28,0,0,0,1.09.65q3.23,1.64,5.76.15Q478.13,290.67,478.43,285.75Z" transform="translate(-321.11 -190.9)"/><path d="M549.74,249.57a.87.87,0,0,1-.15,1.09,4.63,4.63,0,0,1-.75.55q.25,1.09-2.93,4.32a28,28,0,0,0-5.32,7.75.72.72,0,0,1-.84.4A1,1,0,0,1,539,263l-.05-.1a.92.92,0,0,1-.3.05,53.52,53.52,0,0,0-7.06.4q-.89.25-1.09-.6a7.66,7.66,0,0,0-2-3.73,5.57,5.57,0,0,0-.6,1.29.62.62,0,0,1-.3.45q-.89,1.89-1.69,10.69a107.47,107.47,0,0,0-.7,13.12,15,15,0,0,0,.45,3q1.44-1.19,3.33-7.36a.78.78,0,0,1,1-.6q.84.2.7.94a.76.76,0,0,0,.15.2q.5.84,4.27,2.19a16.63,16.63,0,0,1,3.33,1.59,1,1,0,0,1,.89-.05.67.67,0,0,1,.4.75q-.05.65,3.13,2a21.08,21.08,0,0,0,4.08,1.39q.79.2.55,1a1,1,0,0,1,.75.4.63.63,0,0,1-.05.84q-8,11.23-12.28,13.32-9.84,5-18.84.94a1.07,1.07,0,0,1-.35.05,34.82,34.82,0,0,1-13.62-3.88,16.91,16.91,0,0,1-8.4-10.79q-1.74-6.71.05-19.28a60.62,60.62,0,0,1,6.46-20.62,83.94,83.94,0,0,1,5-8.05q2.88-4.12,5.72-5.47,2.63-1.29,9.24-1.14a62.68,62.68,0,0,1,11.18,1,.67.67,0,0,1,.6.84,15.09,15.09,0,0,1,9.94,3.38A23.48,23.48,0,0,1,549.74,249.57Z" transform="translate(-321.11 -190.9)"/><path class="cls-10" d="M499.94,296.84q4.62,4.82,13.72,6.31-8.15-6.76-5.67-25.3.35-2.63.8-7.8t.75-7.75q1.29-9.89,5.81-13.87a.74.74,0,0,1,.35-.2,22.14,22.14,0,0,1,6.36-6.11,24.71,24.71,0,0,1,7.75-3.68,73,73,0,0,0-10.49-.6,17.88,17.88,0,0,0-5.52.5,10.36,10.36,0,0,0-3.68,2.34,42.64,42.64,0,0,0-5.07,7,64.44,64.44,0,0,0-4.82,9.19,74.55,74.55,0,0,0-4.52,22Q494.83,291.52,499.94,296.84Z" transform="translate(-321.11 -190.9)"/><path class="cls-10" d="M547.51,250a1.3,1.3,0,0,0,.35-.2,22.08,22.08,0,0,0-6.71-7.65,12.48,12.48,0,0,0-9.59-2.34,23.24,23.24,0,0,0-8.95,4q-4.82,3.38-6.36,7.11-.4.85-1.19.3-2.59,3.38-3.58,9.89-.4,2.53-.7,6.71-.4,5.07-.6,6.71-1.19,10.84-.84,14.86.94,9.64,6.51,13.22a17.53,17.53,0,0,0,9.54,2.53,20.92,20.92,0,0,0,9.64-2.34q4.17-2.19,11.48-12.42h0a22.24,22.24,0,0,1-5.22-1.94,11.71,11.71,0,0,1-2.29-1.34,9,9,0,0,1-2.88,4.52,8,8,0,0,1-5,2,6.9,6.9,0,0,1-4.92-1.74,7.8,7.8,0,0,1-2.44-4.67q-.7-4,.3-14.76t2.24-13.07a.75.75,0,0,1,.15-.2,12.5,12.5,0,0,1,1.09-1.94,1,1,0,0,1,.3-.35q3.28-4.22,7-2.73,2.93,1.19,5.12,6.51a23.52,23.52,0,0,1,3.63-5.32q2.58-2.63,2.29-2.29l1-1.14c.17-.26.28-.33.35-.2a.68.68,0,0,1-.05-.75A.79.79,0,0,1,547.51,250Z" transform="translate(-321.11 -190.9)"/><path class="cls-11" d="M530.11,282.67q-1.44,5-3.78,6.66a4.34,4.34,0,0,0,3.23,2.44,6.19,6.19,0,0,0,5.12-1.24,6.81,6.81,0,0,0,2.78-4.52,16.47,16.47,0,0,0-3.78-1.54A10.42,10.42,0,0,1,530.11,282.67Z" transform="translate(-321.11 -190.9)"/><path class="cls-11" d="M532,261.5a54.51,54.51,0,0,1,6.31-.25q-1.64-4.07-3.63-5.17-2.58-1.44-5.17,1.54A11.28,11.28,0,0,1,532,261.5Z" transform="translate(-321.11 -190.9)"/><path d="M614.15,240.28a.61.61,0,0,1,.4.5q.69,2.49-3,8.45-.85,1.34-3.53,5.22-2.24,3.28-3.38,5.32-3.23,5.67-4.77,8.5l-1.69,3.23a4.67,4.67,0,0,1-1,1.49.87.87,0,0,1-.4.1.74.74,0,0,1,.35,1.09q.1-.25.3,0a8.54,8.54,0,0,0,.55.94q.8,1.19,2,2.78,1.69,2.19,4.77,5.91,2.63,3.18,4.32,5.67a106.9,106.9,0,0,0,7.6,10.14.66.66,0,0,1,.2.75.9.9,0,0,1-.55.55q-2.19,2.68-3.43,4.42t-1.94,2.88a8,8,0,0,0-.6,1,1.05,1.05,0,0,0-.15.3v.05a.63.63,0,0,1-.4.7.65.65,0,0,1-.4.15,73.87,73.87,0,0,1-9.19,1q-3.38.2-5.07.45-.8.15-2.19.5-1.59.4-2.19.5a.74.74,0,0,1-.8-.3.68.68,0,0,1,0-.85q-1.34-1.94-5.27-7.11-1.64,2.19-4.42,6.46a.72.72,0,0,1-.85.35q-.35-.15-.94-.45a.76.76,0,0,1-.55.45,49.34,49.34,0,0,1-8.75,1q-5.12.2-7-.5a3.49,3.49,0,0,1-2.29-3.63,15.92,15.92,0,0,1,1.09-4.67A95,95,0,0,0,559.43,289q-1.39-8.2-2.34-12.08-.5-1.89-1.34-5.22-.95-3.68-1.34-5.27-1.89-7.36-2.53-11.08a24.18,24.18,0,0,1-.45-3.88q0-1.59.55-2a.48.48,0,0,1,.35-.15.6.6,0,0,0-.1-.15.57.57,0,0,1-.05-.84q6.06-8.2,8.15-10.14l.2-.15a.76.76,0,0,1,.35-.65.61.61,0,0,1,.8,0,8.63,8.63,0,0,0,2.19.6q1.74.35,3.93.65t3.83.4a16.63,16.63,0,0,0,2.24.1q.75-.15.89.65.2-.4.35-.75a.61.61,0,0,1,.84-.35.73.73,0,0,1,.85,0,.7.7,0,0,1,.3.84q-.6,1.94.5,8.25,1,5.72.85,5,.79,4.17,1,6,.25,2,.25,2.29.3-.4.45-.65.69-1,2.24-3.38,1.44-2.14,2.29-3.33,2.83-4,2.93-4.72a.77.77,0,0,1,.5-.6.82.82,0,0,1-.2-1,16,16,0,0,1,3.58-4.52q3.43-3.23,4.12-4.07a.61.61,0,0,1,0-.8l.25-.35a.68.68,0,0,1,.8-.35.77.77,0,0,1,.6.55l1.09.05q.74.1,1.64.15,2.63.25,3.63.4t3.48.25a37.21,37.21,0,0,1,4.18.4,5.55,5.55,0,0,1,1.84.5.75.75,0,0,1,.75,0,.55.55,0,0,1,.4.65S614.19,240.18,614.15,240.28Z" transform="translate(-321.11 -190.9)"/><path class="cls-12" d="M599.39,310.06a89.86,89.86,0,0,0,8.95-.89.62.62,0,0,1-.2-.45q-9.94-13.07-12-16.1a93.6,93.6,0,0,0-5.57-7.65q-3.13-3.48-3.08-5.17v-.1a.67.67,0,0,1-.75-.4.77.77,0,0,1,.05-.94,22.85,22.85,0,0,0,2.09-3.23q1.34-2.43,1.94-3.28,4.27-6.11,5.57-8.45a56,56,0,0,1,5.27-8.15q.35-.5,1.19-1.49t1.19-1.44a11,11,0,0,0,1.74-2.63,93,93,0,0,0-10.74-.35,29,29,0,0,1-4.42-.25,8.05,8.05,0,0,1-1.49-.3.21.21,0,0,1,0,.2q-.15,1.24-3,5.27-.85,1.19-2.44,3.63t-2.49,3.63q-.65.89-2.53,3.38-1.64,2.14-2.54,3.43-2.58,3.78-4.42,4.57a.77.77,0,0,1-.89-.2.73.73,0,0,1-.2-.79,75.78,75.78,0,0,1-3.23-12,54.27,54.27,0,0,1-1.09-7.16,21.67,21.67,0,0,1,0-3h-.05a56.65,56.65,0,0,0-7.7-.4q-2.19,0-4,0h-1.24l-.3.05q.75.55.05,1.09a.91.91,0,0,0-.05.3,7.2,7.2,0,0,0,0,1.19,33.6,33.6,0,0,0,.55,3.73q0-.1,5.22,21.42,1,4.37,2.39,12.87a100.28,100.28,0,0,1,1.39,13.17.71.71,0,0,1,.1.65.51.51,0,0,0-.1.2c0,.56,0,1,0,1.44a.7.7,0,0,1-.7.75,7.57,7.57,0,0,0-.4,2.78q.1,1.44,2.24,1.84a28.43,28.43,0,0,0,6.76.15,50,50,0,0,0,7.21-.94.79.79,0,0,1,.55.1,1.06,1.06,0,0,1,.4-.45q-.5-1.84-1.64-5.47t-1.69-5.47a47.41,47.41,0,0,1-1.39-7,11,11,0,0,1,.5-5.17.78.78,0,0,1,.15-.2l-.05-.15c-.13-.46.05-.76.55-.89a.68.68,0,0,1,.94.55,40.14,40.14,0,0,0,6.61,13.27q1.34,1.94,4.52,6.06,2.93,3.88,4.37,6,2.78-.7,3.38-.8l2-.3Z" transform="translate(-321.11 -190.9)"/><path class="cls-12" d="M561.37,239.28a68.46,68.46,0,0,0-7,8.55h4.13a57.31,57.31,0,0,1,8.1.45,3.85,3.85,0,0,1,.2-.5q.3-.75,1-.25a37.3,37.3,0,0,0,6.51-7l-.1.05a14.55,14.55,0,0,1-2.63-.05q-2-.15-4.07-.45-2.64-.35-4.27-.7a13,13,0,0,1-1.64-.4A.79.79,0,0,1,561.37,239.28Z" transform="translate(-321.11 -190.9)"/><path class="cls-13" d="M575.24,241.87q-1.49,2.29-7.11,7.45a1.07,1.07,0,0,1-.35.15,17.67,17.67,0,0,0,0,4,66.49,66.49,0,0,0,1.19,7.16A81.81,81.81,0,0,0,571.86,271a24.52,24.52,0,0,0,3.48-4.27l3.28-4.32a.9.9,0,0,1-.7-.45.61.61,0,0,1,.1-.79.86.86,0,0,0,0-.25,8.47,8.47,0,0,0,0-.89q-.1-1-.35-2.73l-1-5.57q.1.55-.89-5.42A39.46,39.46,0,0,1,575.24,241.87Z" transform="translate(-321.11 -190.9)"/><path class="cls-14" d="M579.91,309q2.24-3.38,3.83-5.47-6.36-8.45-8.45-14.36a14.13,14.13,0,0,0,.1,3.28,49.5,49.5,0,0,0,1.44,6.51q.45,1.69,1.54,5T579.91,309Z" transform="translate(-321.11 -190.9)"/><path class="cls-13" d="M602.77,284q-3.43-4.22-5.12-6.51-2.19-3-2-3.83a25.55,25.55,0,0,1-2.44,2.63q-2.83,2.73-4.57,2.29h-.15l-.35.5q.84,0,.8.79a5.37,5.37,0,0,0,1.54,2.73c.23.3.6.71,1.09,1.24l1.09,1.24q.89,1.09,5.47,7.85,3.13,4.62,6.26,8.6.5.6,1.69,2.09t1.64,2.14l1.54,1.94a.57.57,0,0,0,.1.15q.6-.95,1.64-2.44,1.49-2.14,3.73-4.92a1.32,1.32,0,0,1,.1-.5q-1.39-1.59-7.36-10Q606.1,287.94,602.77,284Z" transform="translate(-321.11 -190.9)"/><path class="cls-13" d="M612.12,245.4a9.25,9.25,0,0,0,.94-2.34,19.89,19.89,0,0,1-1.54,2.09q-3.28,4.17-3.38,4.32a.63.63,0,0,1-.2.8l-.45.4a.78.78,0,0,1-.55.1,49,49,0,0,1-3.83,5,51.23,51.23,0,0,0-5.47,8.4q-.8,1.49-5.76,8.75l-2.49,4.17q1,0,3.48-2.68.6-.55,3.28-3.78a.58.58,0,0,1,.79-.15q.35-.65.25-.55.3-.45,1.54-2.88t4.32-7.75q-.25.5,6.46-9.84l2.09-3.23Z" transform="translate(-321.11 -190.9)"/><path class="cls-12" d="M597.06,239.28a37.24,37.24,0,0,1-3.83,3.93,19.48,19.48,0,0,0-3.63,4.08l.1,0,.25.1.7.15q.84.1,1.79.15,1.89.1,3.78,0a58.14,58.14,0,0,1,10.59.5l.25.1a2.61,2.61,0,0,0,.25-.35q.55-.75,2.09-2.63a20.55,20.55,0,0,0,3.08-4.42.58.58,0,0,1-.35-.3c0,.07-.05.07-.25,0l-.7-.15q-.7-.1-1.74-.2t-3.73-.25l-4.62-.4-3.23-.35.15,0Z" transform="translate(-321.11 -190.9)"/><path d="M539.43,209.17a.31.31,0,0,1,0,.28.37.37,0,0,1-.24.18,5.35,5.35,0,0,0-.14,1.61,3.24,3.24,0,0,0,.2,1.49.24.24,0,0,1,0,.32.32.32,0,0,1-.32.12l-.14,0q-.87,0-3,.18a.27.27,0,0,1,.16.26q0,6.55-.2,8.8a.3.3,0,0,1-.32.3,22.62,22.62,0,0,0-3.36.5.25.25,0,0,1-.1.06,9.76,9.76,0,0,1-1.19.3.24.24,0,0,1-.26,0,.33.33,0,0,1-.12-.26l0-.08a.35.35,0,0,1-.22-.08,9.61,9.61,0,0,0-1.73-1.31.31.31,0,0,1-.16-.36,5.55,5.55,0,0,0,0-1.45,8.87,8.87,0,0,1-.06-1.47.44.44,0,0,1,.06-.14q0-.24,0-.72t0-.75a5.18,5.18,0,0,1,.44-2.7L527,214.1a.28.28,0,0,1-.3-.22s0,0,0-.1a.3.3,0,0,1-.42.12,4.62,4.62,0,0,1-1.53-1.11,2.45,2.45,0,0,1-.68-1.21.43.43,0,0,1,0-.14.08.08,0,0,1,0-.06,10.23,10.23,0,0,1,.58-4.69.3.3,0,0,1,.08-.22l.12-.3a.25.25,0,0,1,.36-.14.29.29,0,0,1,.2.34q.95,0,5.18-.5a22.11,22.11,0,0,1,5.18-.1.25.25,0,0,1,.28-.12.27.27,0,0,1,.24.18q.38.08.18.42a2.33,2.33,0,0,0,.26.3,10.88,10.88,0,0,0,.89.87q.89.79,1.75,1.45l.14.12Zm-14.06,3.4a3.82,3.82,0,0,0,1.17.81,18.44,18.44,0,0,1-.1-3.77.24.24,0,0,1-.18-.28.32.32,0,0,1,.2-.28v0a4.73,4.73,0,0,1-1.15-2h-.18a10.49,10.49,0,0,0-.42,1.89,11.44,11.44,0,0,0-.08,2.5.39.39,0,0,1,0,.12.18.18,0,0,1,0,.08Q524.66,211.93,525.37,212.57Zm1.25-4.37a5.44,5.44,0,0,1,.64.91,38.21,38.21,0,0,0,5.66-.14,32.52,32.52,0,0,1,5.44-.06q-.93-.75-1.61-1.39a5.62,5.62,0,0,1-1-1.15q.24,0-9.79.6Q525.89,207.28,526.62,208.2Zm11.86,4.37a7.19,7.19,0,0,1-.08-1.33,6.74,6.74,0,0,1,.16-1.69,28,28,0,0,0-5.62,0,33.76,33.76,0,0,1-5.62.14.29.29,0,0,1-.28.08,13.47,13.47,0,0,0,.16,3.69l1,.1,1,.08a5.38,5.38,0,0,0,2-.14.22.22,0,0,1,.32.1.22.22,0,0,1,.06.26q-.16.6-.58,5.78,0,.4-.08.93a.24.24,0,0,1,.1.32,4.75,4.75,0,0,0-.08,2l.54-.12c0-.07,0-.09,0-.06a32.46,32.46,0,0,1,3.65-.58q.2-2.15.2-8.5a.25.25,0,0,1,.16-.26.28.28,0,0,1-.16-.34.32.32,0,0,1,.3-.26Q537.73,212.57,538.48,212.57Zm-8.12,6.73q.36-4.59.46-5a6.6,6.6,0,0,1-1.53,0,.31.31,0,0,1-.08.12q-.52.6-.42,3.08a13,13,0,0,1,0,2.09,13.44,13.44,0,0,1,.06,1.77,8,8,0,0,1,1.41,1.09,4.54,4.54,0,0,1,.1-1.51l-.1-.06.08-.93Z" transform="translate(-321.11 -190.9)"/><path d="M555.76,210q2.68,4.51.6,8.24a8.45,8.45,0,0,1-5.76,4.31,7.45,7.45,0,0,1-5.1-.52,5.42,5.42,0,0,1-2.88-3.26l-.12,0q-1.39-.52-1.83-2.9a9.49,9.49,0,0,1,.28-5.2,7.6,7.6,0,0,1,4-4.53q3.91-1.71,6.53-.46,1.53.73,4.07,4.21A.32.32,0,0,1,555.76,210Zm-14.36,6.3a2.86,2.86,0,0,0,1,1.73c0-.17,0-.34-.06-.5a11.15,11.15,0,0,1,1.09-5.46q1.45-3.22,3.54-3.79l0,0a.3.3,0,0,1,.2-.22.23.23,0,0,1,.3.08h.1l.34,0q.36,0,.89,0l2-.1a6.17,6.17,0,0,1,3.24,1q-2.3-3.1-4.75-3.2a7.56,7.56,0,0,0-6.26,2.4,7.79,7.79,0,0,0-2.07,5.56l0,1.53Zm15,.36a7.72,7.72,0,0,0-1-6.12.31.31,0,0,1-.12-.1l0,0a9.72,9.72,0,0,0-2.82-1.57,5.55,5.55,0,0,0-2-.22l-2.07.12a4,4,0,0,1-.95,0,.31.31,0,0,1-.2.16q-2.18.6-3.5,4.39t-.26,5.88a5.21,5.21,0,0,0,4.69,3,7.91,7.91,0,0,0,5.06-1.35l2.48-1.65Zm-6.71-4.37q2-.2,2.12,2.05a3.77,3.77,0,0,1-1,3.26,2,2,0,0,1-1.65.56,1.83,1.83,0,0,1-1.47-1.33,3.45,3.45,0,0,1,0-2.38,4.51,4.51,0,0,1,1.77-1.89A.28.28,0,0,1,549.66,212.29Zm.87,4.61a3.9,3.9,0,0,0,.65-2.36q0-1.57-1.21-1.65V213a2.77,2.77,0,0,1-.52,1.73,2.89,2.89,0,0,1-1.41,1.17,2.53,2.53,0,0,0,.18.83q.44,1.09,1.39.85A1.5,1.5,0,0,0,550.52,216.9Zm-1.21-3.54a3.06,3.06,0,0,0-1.17,1.39l-.08.36,0,0A2.41,2.41,0,0,0,549.31,213.36Z" transform="translate(-321.11 -190.9)"/><path d="M583.11,209.17a.31.31,0,0,1,0,.28.37.37,0,0,1-.24.18,5.34,5.34,0,0,0-.14,1.61,3.24,3.24,0,0,0,.2,1.49.25.25,0,0,1,0,.32.32.32,0,0,1-.32.12l-.14,0q-.87,0-3,.18a.27.27,0,0,1,.16.26q0,6.55-.2,8.8a.3.3,0,0,1-.32.3,22.63,22.63,0,0,0-3.36.5.24.24,0,0,1-.1.06,9.74,9.74,0,0,1-1.19.3.24.24,0,0,1-.26,0,.33.33,0,0,1-.12-.26l0-.08a.35.35,0,0,1-.22-.08,9.63,9.63,0,0,0-1.73-1.31.31.31,0,0,1-.16-.36,5.53,5.53,0,0,0,0-1.45,9,9,0,0,1-.06-1.47.49.49,0,0,1,.06-.14q0-.24,0-.72c0-.34,0-.58,0-.75a5.2,5.2,0,0,1,.44-2.7l-1.61-.14a.28.28,0,0,1-.3-.22s0,0,0-.1a.3.3,0,0,1-.42.12,4.62,4.62,0,0,1-1.53-1.11,2.44,2.44,0,0,1-.68-1.21.45.45,0,0,1,0-.14.08.08,0,0,1,0-.06,10.22,10.22,0,0,1,.58-4.69.3.3,0,0,1,.08-.22l.12-.3a.25.25,0,0,1,.36-.14.29.29,0,0,1,.2.34q.95,0,5.18-.5a22.11,22.11,0,0,1,5.18-.1.24.24,0,0,1,.28-.12.27.27,0,0,1,.24.18c.26.05.32.19.18.42a2.49,2.49,0,0,0,.26.3,11,11,0,0,0,.89.87q.89.79,1.75,1.45l.14.12Zm-14.06,3.4a3.81,3.81,0,0,0,1.17.81,18.39,18.39,0,0,1-.1-3.77.24.24,0,0,1-.18-.28.32.32,0,0,1,.2-.28v0a4.73,4.73,0,0,1-1.15-2h-.18a10.55,10.55,0,0,0-.42,1.89,11.4,11.4,0,0,0-.08,2.5.39.39,0,0,1,0,.12.18.18,0,0,1,0,.08Q568.35,211.93,569.05,212.57Zm1.25-4.37a5.53,5.53,0,0,1,.65.91,38.21,38.21,0,0,0,5.66-.14,32.52,32.52,0,0,1,5.44-.06q-.93-.75-1.61-1.39a5.61,5.61,0,0,1-1-1.15q.24,0-9.79.6Q569.58,207.28,570.3,208.2Zm11.86,4.37a7.31,7.31,0,0,1-.08-1.33,6.77,6.77,0,0,1,.16-1.69,28,28,0,0,0-5.62,0,33.76,33.76,0,0,1-5.62.14.3.3,0,0,1-.28.08,13.47,13.47,0,0,0,.16,3.69l1,.1,1,.08a5.38,5.38,0,0,0,2-.14.22.22,0,0,1,.32.1.22.22,0,0,1,.06.26q-.16.6-.58,5.78,0,.4-.08.93a.24.24,0,0,1,.1.32,4.76,4.76,0,0,0-.08,2l.54-.12c0-.07,0-.09,0-.06a32.48,32.48,0,0,1,3.64-.58q.2-2.15.2-8.5a.25.25,0,0,1,.16-.26A.28.28,0,0,1,579,213a.32.32,0,0,1,.3-.26Q581.42,212.57,582.16,212.57ZM574,219.3q.36-4.59.46-5a6.6,6.6,0,0,1-1.53,0,.34.34,0,0,1-.08.12q-.52.6-.42,3.08a13,13,0,0,1,0,2.09,13.48,13.48,0,0,1,.06,1.77,8,8,0,0,1,1.41,1.09A4.54,4.54,0,0,1,574,221l-.1-.06L574,220Z" transform="translate(-321.11 -190.9)"/><path d="M599.87,207.54q0,5-.08,7.59-.08,2.1-.08,3.77v2.48a.92.92,0,0,0,0,.26v.06a.3.3,0,0,1,0,.26,0,0,0,0,0,0,0,.22.22,0,0,1-.22.14,1.32,1.32,0,0,1-1,.5l-.65,0-.56.08q-.72.16-1.25.24a2,2,0,0,1-.74,0,.34.34,0,0,1-.16,0,4.61,4.61,0,0,1-.95-.46l-.66-.4v.62a.29.29,0,0,1-.32.3.27.27,0,0,1-.3-.3v-.06a12.12,12.12,0,0,1-2.36.36l-.93.1-.42.06h0q0,.38-.36.26l-1-.32a10,10,0,0,1-1-.32q-1.07-.46-1.19-.83a.35.35,0,0,1,0-.2.34.34,0,0,1-.06-.26,15.63,15.63,0,0,0,.12-3.5q-.16-3.14-.16-3.52,0-1.17.26-3.93a36.14,36.14,0,0,0,.18-3.93.29.29,0,0,1,.18-.28.33.33,0,0,1,0-.14c0-.19.06-.29.26-.3a.31.31,0,0,1,.34.26,13.65,13.65,0,0,1,1.59-.18,9.62,9.62,0,0,0,1.57-.22.26.26,0,0,1,.22-.26.28.28,0,0,1,.34.12.23.23,0,0,1,.28.12.31.31,0,0,1,0,.32,8.52,8.52,0,0,0,1.11.83l.42.3q0-.18,0-1.53a.32.32,0,0,1-.08-.34.26.26,0,0,1,.28-.2,8.8,8.8,0,0,0,1.61-.14l1.57-.2a.32.32,0,0,1,.3-.14.3.3,0,0,1,.3.2,2.25,2.25,0,0,0,.66.54c.46.31.7.47.74.48a8.56,8.56,0,0,1,1.61,1.37h.06a.34.34,0,0,1,.3,0A.29.29,0,0,1,599.87,207.54Zm-11.12,4a10.23,10.23,0,0,1,.34-2.9.27.27,0,0,1-.28,0,9.13,9.13,0,0,1-1.65-1.09c-.27-.22-.45-.37-.54-.46q0,1.27-.22,3.89a38.61,38.61,0,0,0-.22,3.87q.08,6.53,0,6.81a.29.29,0,0,1,.26.4c-.05,0,.06,0,.34.14s.46.19.72.28l1,.32a.14.14,0,0,1,0-.06,7.6,7.6,0,0,1,.06-.95l.14-1.61a45.75,45.75,0,0,0,.18-4.67Q588.77,211.12,588.75,211.5Zm.36-3.42a.25.25,0,0,1,.14.12s0,0,0,0a.23.23,0,0,1,.3-.14.37.37,0,0,1,.26.26,4.88,4.88,0,0,0,1.67,0,8,8,0,0,1,1.15-.06q-.18-.14-.73-.5t-.72-.5a5.4,5.4,0,0,1-1-.83,8.52,8.52,0,0,1-1.49.24l-1.51.14c.19.17.38.34.56.48A10.09,10.09,0,0,0,589.11,208.08Zm10,7.39q.12-2.78.12-7.51a.25.25,0,0,1-.18-.08,15.32,15.32,0,0,1-1.69.14,4.37,4.37,0,0,1-1.45,0l0,.1a2.87,2.87,0,0,1,0,.3q0,.38,0,.85c0,.12,0,.36,0,.72s0,.53,0,.71,0,.44,0,.81,0,.61,0,.79a2.24,2.24,0,0,1-.26,1.31.13.13,0,0,1-.06.06.27.27,0,0,1-.22.1l-1.57,0v0a.3.3,0,1,1-.6,0c0,.05,0,0,0-.1a.29.29,0,0,1-.26-.3.29.29,0,0,1,.26-.32l-.08-1.07c0-.46,0-.82-.06-1.09a9.14,9.14,0,0,1,.1-2h0a6.93,6.93,0,0,0-2.2,0,4,4,0,0,1-1.39,0,10.18,10.18,0,0,0-.24,3.1q0,.62.06,1.83t.1,1.83q0,1.49-.2,4.47,0,.54-.14,1.61c0,.34-.06.54-.06.62s0,.24,0,.2l.26,0,.26,0,1.31-.12a4.79,4.79,0,0,0,1.73-.34.32.32,0,0,1,.14,0q0-.46-.12-2a4.06,4.06,0,0,1,.26-2.52.27.27,0,0,1,.3-.26c.35,0,1-.06,1.85-.14a.27.27,0,0,1,.4,0,.32.32,0,0,1,0,.44s0,0,0,0v.24c0,.16,0,.31,0,.44s.07.65.12,1.11.06,1.27.06,2.84a.23.23,0,0,1,0,.1h0l.56-.1.4-.08.42-.08.95-.14a2.48,2.48,0,0,0,.87-.18.26.26,0,0,1,.12-.12v-4.55S599.1,216.59,599.14,215.47Zm-6.2-8.84a2.4,2.4,0,0,0,.1.91.34.34,0,0,1,0,.22l.24.18a.29.29,0,0,1,.12.28.31.31,0,0,1,.42-.14.23.23,0,0,1,.16.34,6.8,6.8,0,0,0-.28,2.62q0,.36.06,1t.06,1h1s0,0,0,0l.44,0a1.73,1.73,0,0,0,.06-.62q0-.4,0-1c0-.17,0-.41,0-.7s0-.56,0-.71c0-.83-.05-1.4,0-1.71s0-.38,0-.46l-1.63-1.07q-.5-.34-.73-.52Zm3-1.19a8.61,8.61,0,0,0-1.35.14l-1.35.18a2.55,2.55,0,0,0,.52.38l.54.36a11.18,11.18,0,0,0,1.35.91.13.13,0,0,1,.12,0,.12.12,0,0,1,.08,0c.17-.13.33-.1.46.1l.77,0q.36,0,.78-.08l.66-.06a9.65,9.65,0,0,0-1.45-1.09,5.37,5.37,0,0,1-1.09-.79Zm-.8,16.7a28,28,0,0,0-.08-3.06,9.07,9.07,0,0,1-.12-1.27q-.87.08-1.37.08-.32.24-.26,1.25,0,.48.1,1.41c0,.4.07.71.08.91a.26.26,0,0,1,.32.12l0,0,.18.12.52.3.48.26c.09,0,.13.06.1.06s0-.11,0-.06v-.16Z" transform="translate(-321.11 -190.9)"/><path d="M615.35,219.54a.27.27,0,0,1,.38.1.24.24,0,0,1,0,.38l-.75.77q-.47.5-.75.77-1.21,1.09-1.21,1.07a.24.24,0,0,1-.26.16q-.34.24-.46-.1h0a22.86,22.86,0,0,0-3.93,0q-3,.14-4.55.06a.3.3,0,0,1-.32-.3,4.17,4.17,0,0,1,.16-1.63,8.76,8.76,0,0,1,0-1.55q.14-1.31.14-1.53.1-2.28.28-4.19.26-2.38.28-4.11a17.26,17.26,0,0,1,.3-3.44.31.31,0,0,1-.16-.24.27.27,0,0,1,.14-.28,3.36,3.36,0,0,0,.68-.5,8,8,0,0,1,.66-.52,9.08,9.08,0,0,1,1.17-.68q.81-.44,1.17-.69a.25.25,0,0,1,.3,0,.29.29,0,0,1,.28-.2l3.18.22q1.33.1,1.61.16l.26.06.26,0c.15,0,.22.05.22,0a.32.32,0,0,1,.26.08l0,0,.08,0,.12,0s0,0,0,0a.32.32,0,0,1,.42-.2.24.24,0,0,1,.18.36,4.68,4.68,0,0,0-.16,1.69,10.32,10.32,0,0,0,.1,1.19.3.3,0,0,1,.22.2.31.31,0,0,1-.06.32h0c0,.27-.12.38-.36.34l-1.07.81a9.08,9.08,0,0,0-.78.58,2.11,2.11,0,0,0-.44.44.32.32,0,0,1-.36.2q-.14.32-.42.14a2.42,2.42,0,0,0-.85-.28q-.18.18-.06.74l.64.06q.4,0,.65,0a5.91,5.91,0,0,0,1,0,.31.31,0,0,1,.4-.16.23.23,0,0,1,.38.1.31.31,0,0,1-.08.44l-.2.12a5.57,5.57,0,0,0,0,1.41,11.61,11.61,0,0,0,.2,1.63.32.32,0,0,1-.1.32.35.35,0,0,1-.3.06q-.34.34-2.4,1.85a.24.24,0,0,1-.26,0,.25.25,0,0,1-.1.06.44.44,0,0,1-.08.2c-.05.05-.05.19,0,.4l0,.1a18.12,18.12,0,0,0,3.52-.08.26.26,0,0,1,.36.18.31.31,0,0,1,.38-.06.25.25,0,0,1,.16.34l-.22.64Zm-3,2.52q0-.22,0-1.43a8,8,0,0,1,.1-1.41.37.37,0,0,1-.16-.12h-3.83l-.08,0a.27.27,0,0,1-.3-.3q0-.42-.06-1.45t-.06-1.45a.52.52,0,0,1-.32-.22.27.27,0,0,1,.1-.44l.12,0q.1,0,0,0a.31.31,0,0,1,.22,0,.28.28,0,0,1,.3-.06.25.25,0,0,1,.2.26l.32,0,.38,0,.36,0a3.84,3.84,0,0,1,1.23.1q0-.32-.06-1t0-1a4.46,4.46,0,0,1,0-.83q-.93,0-1.31,0a4,4,0,0,1-1-.14.24.24,0,0,1-.32-.12l-.12,0a0,0,0,0,0,0,0l0,0q-.28-.18-.06-.46v-.32a4.29,4.29,0,0,0,0-.58c0-.21,0-.48,0-.81a3.61,3.61,0,0,1,0-.71.31.31,0,0,1-.06-.32.29.29,0,0,1,.28-.2h0a.31.31,0,0,1,.4,0q3-.18,3.83.26a.52.52,0,0,1,.1-.14c-.2,0-.3-.11-.3-.3v-2q-.26-.08-3.38-.24t-3.56-.1a20,20,0,0,0-.28,3.63q-.08,1.89-.3,4-.1,1-.26,4-.16,3.2-.18,2.92a.3.3,0,0,1,0,.24.89.89,0,0,1-.06.16,3.17,3.17,0,0,0-.12,1.09q1.69.06,4.43-.08A19.48,19.48,0,0,1,612.31,222.06Zm-6.1-17c-.09.07-.28.22-.54.46q.63,0,1.69,0,1.29.08,1.71.08a20.41,20.41,0,0,1,3.24.22l1.31-1.37.2-.22.24-.26-.28-.08a12.85,12.85,0,0,0-1.55-.18l-3.34-.24-.14,0a.24.24,0,0,1-.12.16q-.34.22-1.23.68A9.79,9.79,0,0,0,606.21,205Zm4.45,5a1.85,1.85,0,0,1,0-.87h-.54l-.8.06-.81,0a2.25,2.25,0,0,0,0,.62q0,.34,0,.81v.83a11.26,11.26,0,0,0,2-1.27A.37.37,0,0,1,610.66,210.08Zm-.2,7a1.62,1.62,0,0,0-.06-.34,1.48,1.48,0,0,1-.06-.36.93.93,0,0,1,.1-.42q-.08,0-1.51,0l-.34,0q0,.26.08,2.07a3.6,3.6,0,0,0,1.11-.62A2.84,2.84,0,0,1,610.46,217Zm.78.26a.3.3,0,0,1-.28.24,4,4,0,0,0-1.25.66,2.55,2.55,0,0,1-.44.26h3.28a5.19,5.19,0,0,1,1.33-1.11Q613.56,217.41,611.24,217.31Zm0-6.69a.35.35,0,0,1-.34.16,7.38,7.38,0,0,1-1.65,1.07h.56q.16,0,1.17,0a.57.57,0,0,1,.14-.16.28.28,0,0,1,.3-.06,6,6,0,0,1,.66-.46l.68-.44-.16,0-.68,0-.48,0Zm2.11.46q-1.85,1.39-1.79,1.33a.35.35,0,0,1-.18.1,8.07,8.07,0,0,0,0,1.23q0,.22,0,.66c0,.3,0,.52,0,.66a16.38,16.38,0,0,0,2.07-1.65,11.22,11.22,0,0,1-.16-1.41Q613.4,211.38,613.4,211.08Zm1.37-6.89s-.33.32-.87.87l-.93,1a.32.32,0,0,1-.16.52q0,.28,0,1.85a8.65,8.65,0,0,1,.79-.6q1.23-.91,1.33-1a6,6,0,0,1-.18-1.51Q614.75,204.54,614.77,204.19Zm-1,16.92,1-1a.06.06,0,0,1,0,0q0-.16-.06-1.21a9,9,0,0,1,0-1.23,4.69,4.69,0,0,0-1.45,1,.08.08,0,0,1,0,.06,14.09,14.09,0,0,0-.26,3l.42-.3A4.7,4.7,0,0,0,613.8,221.11Z" transform="translate(-321.11 -190.9)"/><g class="cls-8"><g class="cls-15"><path class="cls-1" d="M466.92,290.06a14,14,0,0,1-2.2-3.71,23.77,23.77,0,0,1-1.55-8.9,41.1,41.1,0,0,1,.24-6.08l.1-.42.08,0a2.74,2.74,0,0,1,.48,0c2,0,3.64,2.58,4.77,7.67a20.66,20.66,0,0,1,.64,7.07C469.16,287.89,468.32,289.34,466.92,290.06Z" transform="translate(-321.11 -190.9)"/><path d="M464.07,271.39c2.21,0,3.55,4,4.28,7.28a20.22,20.22,0,0,1,.63,6.9,5.23,5.23,0,0,1-2,3.85,14.18,14.18,0,0,1-1.85-3.26,23.29,23.29,0,0,1-1.51-8.72,41.13,41.13,0,0,1,.23-6l0-.08h.15m0-1a3.23,3.23,0,0,0-.6.06l-.19,0-.16,0q-.1.4-.2.84a41.32,41.32,0,0,0-.25,6.16,24.14,24.14,0,0,0,1.59,9.09,13.89,13.89,0,0,0,2.53,4.13q2.63-1.09,3.18-5a21,21,0,0,0-.65-7.26q-1.79-8.06-5.26-8.06Z" transform="translate(-321.11 -190.9)"/></g></g></svg>